<svg width="166" height="15" viewBox="0 0 166 15" fill="none" xmlns="http://www.w3.org/2000/svg">
<path d="M15.6823 0.128906L9.20936 14.7917H6.49221L0 0.128906H2.99047L7.936 11.4299L12.9233 0.128906H15.6823Z" fill="white"/>
<path d="M17.2539 0.128906H20.0129V14.7917H17.2539V0.128906Z" fill="white"/>
<path d="M27.0363 2.43355H22.1133V0.128906H34.7279V2.43355H29.7953V14.7917H27.0363V2.43355Z" fill="white"/>
<path d="M46.52 14.7917L43.4845 10.4966C43.2944 10.5151 43.1032 10.5226 42.9122 10.5189H39.5519V14.7917H36.793V0.128906H42.9025C46.8062 0.128906 49.2243 2.09706 49.2243 5.34452C49.2243 7.56663 48.0796 9.1983 46.0634 9.97286L49.4816 14.7917H46.52ZM42.7836 2.43355H39.5519V8.27771H42.7675C45.1888 8.27771 46.4396 7.18887 46.4396 5.34452C46.4396 3.50017 45.2049 2.43355 42.7836 2.43355Z" fill="white"/>
<path d="M52.1855 8.40151V0.128906H54.9445V8.29676C54.9445 11.3157 56.324 12.614 58.7228 12.614C61.1216 12.614 62.4786 11.3157 62.4786 8.29676V0.128906H65.1957V8.40151C65.1957 12.6775 62.7551 15.0012 58.7003 15.0012C54.6455 15.0012 52.1855 12.6775 52.1855 8.40151Z" fill="white"/>
<path d="M82.6393 0.128906L76.1664 14.7917H73.4492L66.957 0.128906H69.9475L74.893 11.4299L79.8804 0.128906H82.6393Z" fill="white"/>
<path d="M84.209 0.128906H86.9679V14.7917H84.209V0.128906Z" fill="white"/>
<path d="M95.6914 13.0157L96.3056 11.8221C97.3667 12.8475 99.2542 13.603 101.209 13.603C103.988 13.603 105.197 12.4507 105.197 11.0063C105.197 6.98427 96.0515 9.45399 96.0515 4.02251C96.0515 1.86389 97.7494 0.000491262 101.518 0.000491262C103.148 -0.0170227 104.748 0.434099 106.123 1.29884L105.602 2.54005C104.388 1.76151 102.975 1.33983 101.528 1.32424C98.8105 1.32424 97.6014 2.51783 97.6014 3.98442C97.6014 8.00644 106.746 5.57164 106.746 10.9174C106.746 13.076 105.007 14.9204 101.209 14.9204C98.9809 14.9204 96.7879 14.1426 95.6914 13.0157Z" fill="white"/>
<path d="M108.85 7.45677C108.85 3.17445 112.158 0 116.657 0C121.156 0 124.442 3.17445 124.442 7.45677C124.442 11.7391 121.114 14.9199 116.657 14.9199C112.2 14.9199 108.85 11.7455 108.85 7.45677ZM122.876 7.45677C122.876 3.96488 120.223 1.38406 116.657 1.38406C113.091 1.38406 110.396 3.95853 110.396 7.45677C110.396 10.955 113.072 13.5327 116.657 13.5327C120.242 13.5327 122.876 10.955 122.876 7.45677Z" fill="white"/>
<path d="M129.541 1.46852V7.23014H137.223V8.57293H129.541V14.7948H127.979V0.128906H138.165V1.46852H129.541Z" fill="white"/>
<path d="M145.665 1.46852H140.449V0.128906H152.459V1.46852H147.24V14.8012H145.665V1.46852Z" fill="white"/>
<path d="M158.041 9.91857C158.042 9.68174 158.091 9.44745 158.184 9.22952C158.278 9.01158 158.416 8.81441 158.588 8.64963C158.76 8.48485 158.964 8.35578 159.188 8.27004C159.411 8.1843 159.65 8.14362 159.89 8.1504C160.126 8.13933 160.362 8.17514 160.584 8.25572C160.806 8.3363 161.01 8.46002 161.182 8.61955C161.355 8.77908 161.493 8.97118 161.59 9.18449C161.686 9.3978 161.738 9.62799 161.742 9.86143C161.75 10.3455 161.562 10.8128 161.221 11.1605C161.052 11.3326 160.85 11.4702 160.627 11.5654C160.405 11.6606 160.165 11.7116 159.922 11.7153C159.432 11.7229 158.958 11.5378 158.606 11.2009C158.254 10.8639 158.052 10.4027 158.044 9.91857H158.041Z" fill="white"/>
<path d="M166 12.6016H153.781V14.7729H166V12.6016Z" fill="white"/>
</svg>
