<svg
  width="25"
  height="25"
  viewBox="0 0 25 25"
  fill="none"
  xmlns="http://www.w3.org/2000/svg"
>
  <path
    d="M7.31886 9.17427V21.9984H3.23761V9.17427H7.31886ZM7.57833 5.2151L7.57985 5.29267C7.57985 5.88552 7.33928 6.419 6.95499 6.7926L6.95347 6.79339C6.7271 7.01002 6.46191 7.17753 6.17325 7.28622C5.88459 7.39491 5.5782 7.44262 5.2718 7.4266H5.2771H5.25214C4.95278 7.44145 4.65364 7.39296 4.37261 7.28402C4.09158 7.17508 3.83445 7.00794 3.61661 6.7926L3.61737 6.79339C3.41509 6.58918 3.25577 6.34305 3.14961 6.07073C3.04344 5.79842 2.99277 5.50592 3.00083 5.21194V5.2151L3.00007 5.16049C3.00007 4.55735 3.24518 4.01437 3.63628 3.63365L3.63779 3.63286C4.09209 3.19995 4.69201 2.97335 5.30585 3.00282H5.30131C5.60205 2.98744 5.9027 3.03519 6.18554 3.14326C6.46837 3.25133 6.72768 3.41753 6.94818 3.63207L6.94667 3.63049C7.14668 3.83166 7.30575 4.07308 7.4143 4.34023C7.52285 4.60738 7.57865 4.89474 7.57833 5.18503V5.21827V5.21669V5.2151ZM21.9985 14.65V21.9984H17.9301V15.1399C17.9714 14.3873 17.7934 13.6393 17.4195 12.9949L17.4285 13.0115C17.2526 12.7523 17.0155 12.5451 16.7402 12.4103C16.465 12.2754 16.1611 12.2175 15.8581 12.2422H15.8641C15.3907 12.2245 14.9267 12.3839 14.5554 12.6918L14.56 12.6886C14.2171 12.9777 13.9488 13.3518 13.7793 13.7769L13.7732 13.7951C13.6696 14.1353 13.6238 14.4919 13.6378 14.8486V14.8431V22H9.56941C9.58605 18.558 9.59437 15.7671 9.59437 13.6273C9.59437 11.4876 9.59034 10.2109 9.58227 9.79719L9.57016 9.17585H13.6386V11.0391H13.6136C13.7755 10.766 13.9427 10.5293 14.1265 10.3077L14.1204 10.3148C14.333 10.0703 14.5615 9.84943 14.8073 9.65155L14.8194 9.64205C15.1342 9.38933 15.4913 9.20035 15.8725 9.08483L15.8951 9.07929C16.3367 8.94448 16.7946 8.87678 17.2546 8.87824H17.3143H17.3113C17.9454 8.85029 18.5778 8.96684 19.1647 9.2198C19.7516 9.47277 20.2789 9.85612 20.7102 10.3433L20.7125 10.3465C21.5708 11.3259 22 12.7601 22 14.6492L21.9985 14.65Z"
    fill="white"
  />
</svg>
