<svg width="53" height="40" viewBox="0 0 53 40" fill="none" xmlns="http://www.w3.org/2000/svg">
<path d="M17.5175 17.8199C17.5175 17.8199 17.239 15.2553 14.6692 15.1858C12.0994 15.1128 10.7805 17.1085 10.7805 19.9588C10.7805 22.8091 12.2398 25.0905 14.7394 25.0905C17.239 25.0905 17.5175 22.2402 17.5175 22.2402L22.3089 22.5229C22.3089 22.5229 22.5901 25.0992 20.5851 27.0617C18.58 29.0271 16.1198 29.346 14.402 29.3343C12.6809 29.3191 10.2995 29.3618 7.99374 27.0226C5.69067 24.6863 5.2998 22.4137 5.2998 20.1808C5.2998 17.9508 5.73548 14.9942 8.47692 12.7519C10.3384 11.231 12.2252 10.668 14.1148 10.668C21.9963 10.668 22.5248 17.8713 22.5248 17.8713L17.5175 17.8199Z" fill="white"/>
<path d="M26.7692 16H29.2308V25.3333H26.7692V16Z" fill="white"/>
<path d="M32 19.2308V22.1026L24 22.1026L24 19.2308L32 19.2308Z" fill="white"/>
<path d="M36.5638 16H39.4356V25.3333H36.5638V16Z" fill="white"/>
<path d="M42.6663 19.2308V22.1026L33.333 22.1026L33.333 19.2308L42.6663 19.2308Z" fill="white"/>
</svg>
