<svg width="40" height="40" viewBox="0 0 40 40" fill="none" xmlns="http://www.w3.org/2000/svg">
<path d="M22.7674 17.2797C22.7674 17.2797 22.4763 14.6692 19.7909 14.5985C17.1056 14.5242 15.7273 16.5556 15.7273 19.4567C15.7273 22.3579 17.2522 24.68 19.8643 24.68C22.4763 24.68 22.7674 21.7789 22.7674 21.7789L27.7743 22.0666C27.7743 22.0666 28.0683 24.689 25.973 26.6865C23.8777 28.687 21.3068 29.0116 19.5117 28.9997C17.7132 28.9842 15.2247 29.0276 12.8151 26.6467C10.4085 24.2686 10 21.9554 10 19.6827C10 17.4128 10.4553 14.4035 13.3201 12.1212C15.2653 10.5731 17.237 10 19.2116 10C27.4477 10 28 17.332 28 17.332L22.7674 17.2797Z" fill="white"/>
</svg>
