<svg width="105" height="40" viewBox="0 0 105 40" fill="none" xmlns="http://www.w3.org/2000/svg">
<path d="M1.33008 13.9531H5.53446V17.8127H9.38058V13.9531H13.5852V25.6408H9.38084V21.7271H5.53472V25.6408H1.33034V13.9531H1.33008Z" fill="white"/>
<path d="M19.1149 17.829H15.4141V13.9531H27.0231V17.829H23.32V25.6408H19.1156V17.829H19.1154H19.1149Z" fill="white"/>
<path d="M28.8652 13.9531H33.2491L35.9458 18.0599L38.64 13.9531H43.0257V25.6408H38.8384V19.8477L35.9458 24.0033H35.8733L32.9789 19.8477V25.6408H28.8652V13.9531Z" fill="white"/>
<path d="M45.1174 13.9531H49.3231V21.7776H55.2357V25.6408H45.1172V13.9531H45.1174Z" fill="white"/>
<path d="M69.5977 13.9531H79.7159V17.8466H73.8291V21.7401H79.7165V25.6333H69.5977V13.9531Z" fill="white"/>
<path d="M81.7405 13.9531H91.859V17.3387H85.972V18.0158H91.859V25.8028H81.7408V22.2475H87.6278V21.5704H81.7402V13.9531H81.7405Z" fill="white"/>
<path d="M93.8828 13.9531H104.001V17.3387H98.1143V18.0158H104.001V25.8028H93.8828V22.2475H99.7699V21.5704H93.8831V13.9531H93.8828Z" fill="white"/>
<path d="M60.6222 26.7743L65.7861 13.2266H63.2807L58.1167 26.7743H60.6222Z" fill="white"/>
</svg>
