<svg width="40" height="40" viewBox="0 0 40 40" fill="none" xmlns="http://www.w3.org/2000/svg">
<path d="M17.5168 8.36652H12.5668C12.5668 12.4835 12.5463 16.5778 12.5463 20.7032C12.5463 23.3213 12.6843 25.7241 12.241 26.4636C11.5158 27.9285 9.63976 27.7415 8.79128 27.4808C7.91932 27.0671 7.476 26.4919 6.96221 25.6646C6.82423 25.4436 6.72147 25.2509 6.6833 25.2509L2.66699 27.6423C3.33931 28.9825 4.3199 30.1329 5.58528 30.8639C7.46719 31.9491 9.995 32.3004 12.6432 31.7281C14.3695 31.2464 15.858 30.2575 16.6301 28.7275C17.7575 26.7526 17.5168 24.3272 17.508 21.6184C17.5315 17.2521 17.508 12.883 17.508 8.48552L17.5168 8.36652Z" fill="white"/>
<path d="M37.2959 23.7633C36.9113 21.4371 35.3406 19.482 30.6843 17.6573C29.0637 16.9235 27.264 16.4163 26.7238 15.2376C26.5241 14.5349 26.4948 14.1552 26.6239 13.7387C26.9557 12.3673 28.6409 11.9565 29.9621 12.3361C30.8223 12.5912 31.615 13.2287 32.1111 14.2515C34.3865 12.815 34.3865 12.815 35.9748 11.8601C35.3788 10.9704 35.0823 10.5823 34.6859 10.1997C33.2972 8.7037 31.4476 7.93867 28.4442 8.00384L26.894 8.19368C25.4055 8.54502 23.9846 9.31288 23.1273 10.3301C20.6171 13.0728 21.3423 17.8528 24.3809 19.8334C27.3843 22.0009 31.7823 22.477 32.3431 24.517C32.8715 27.0048 30.4289 27.801 28.0126 27.5148C26.2305 27.1294 25.2382 26.2709 24.149 24.6757L20.1209 26.9084C20.5819 27.9256 21.1103 28.3733 21.903 29.2658C25.7344 32.9946 35.3142 32.8048 37.0317 27.1294C37.0934 26.9396 37.5602 25.6334 37.1961 23.6245L37.2959 23.7633Z" fill="white"/>
</svg>
