<svg width="40" height="40" viewBox="0 0 40 40" fill="none" xmlns="http://www.w3.org/2000/svg">
<path d="M3.78545 7.90283V28.9729L16.0857 35.8517V29.6029L9.65981 26.0702L9.65772 26.0688L9.65492 26.0675C9.63328 26.0553 9.61513 26.0376 9.59488 26.0227C9.57743 26.0092 9.55718 25.9983 9.54182 25.9834L9.54042 25.9814C9.52227 25.9644 9.5097 25.9434 9.49434 25.9244C9.48038 25.9061 9.46363 25.8905 9.45245 25.8715L9.45176 25.8695C9.43919 25.8491 9.43151 25.8247 9.42243 25.8016C9.41336 25.7813 9.40149 25.7623 9.3959 25.7406C9.38892 25.7148 9.38752 25.687 9.38473 25.6606C9.38194 25.6402 9.37635 25.6199 9.37635 25.5995V25.5982V11.03L6.13338 9.21513L3.78545 7.90283Z" fill="white"/>
<path d="M16.6442 28.6629L24.8428 24.1163L28.941 21.8444L23.3557 18.7207L16.9249 22.3171L11.0638 25.5948L16.6442 28.6629Z" fill="white"/>
<path d="M12.8434 23.3452L16.0864 21.5318V7.90283L13.7385 9.21581L10.4948 11.03V24.6589L12.8434 23.3452Z" fill="white"/>
<path d="M9.93628 3.83776L4.34608 6.96354L9.93489 10.0893L15.5244 6.96286L9.93628 3.83776Z" fill="white"/>
<path d="M29.5058 28.9729V22.781L26.3152 24.5511L17.2042 29.6022V35.8524L29.5058 28.9729Z" fill="white"/>
<path d="M36.2152 17.7793V11.5915L33.8673 12.9045L30.6236 14.7186V20.9065L36.2152 17.7793Z" fill="white"/>
<path d="M30.0651 7.52644L24.4756 10.6522L30.0651 13.778L35.6539 10.6515L30.0651 7.52644Z" fill="white"/>
<path d="M29.5058 14.7186L26.2622 12.9045L23.9142 11.5915V17.7793L27.1572 19.5928L29.5058 20.9065V14.7186Z" fill="white"/>
</svg>
