<svg width="53" height="40" viewBox="0 0 53 40" fill="none" xmlns="http://www.w3.org/2000/svg">
<path d="M4.18817 29.2213C4.18817 29.6134 4.04832 29.9526 3.76573 30.2391C3.48411 30.5246 3.14223 30.6683 2.74114 30.6683C2.34923 30.6683 2.01573 30.5246 1.74248 30.2391C1.46916 29.9526 1.33301 29.6134 1.33301 29.2213C1.33301 28.8181 1.46916 28.4779 1.74248 28.1961C2.01573 27.9134 2.34923 27.7734 2.74114 27.7734C3.14223 27.7734 3.48411 27.9153 3.76573 28.2017C4.04832 28.4882 4.18817 28.8283 4.18817 29.2213Z" fill="white"/>
<path d="M22.1103 30.3712H19.4997L10.0236 15.7282C9.80218 15.376 9.61134 14.9931 9.44926 14.5751H9.37137C9.43881 14.9671 9.47335 15.8088 9.47335 17.0983V30.3712H7.32129V12H10.1144L19.307 26.4122C19.673 26.9841 19.923 27.3939 20.05 27.6404H20.1011C20.0159 27.1121 19.9715 26.2111 19.9715 24.9393V12H22.1105V30.3712H22.1103Z" fill="white"/>
<path d="M35.9067 30.3712H26.1758V12H35.4842V13.9466H28.326V20.058H34.959V22.0055H28.326V28.4237H35.9067V30.3712V30.3712Z" fill="white"/>
<path d="M50.6666 13.9475H45.3778V30.3722H43.2267V13.9475H37.9277V12H50.6666V13.9475Z" fill="white"/>
</svg>
