<svg width="40" height="40" viewBox="0 0 40 40" fill="none" xmlns="http://www.w3.org/2000/svg">
<rect x="4" y="4" width="32" height="32" rx="5.33333" fill="white"/>
<path d="M7.58984 24.6795V15.332H9.86385V16.1696H8.65775V23.8587H9.86385V24.6962L7.58984 24.6795Z" fill="#2929CC"/>
<path d="M15.3074 19.9154C15.3074 21.6199 14.273 22.5915 12.87 22.5915C11.4671 22.5915 10.5332 21.4985 10.5332 20.0034C10.5332 18.4413 11.5132 17.3398 12.9454 17.3398C14.3777 17.3398 15.3074 18.4873 15.3074 19.9154ZM11.5132 19.9908C11.5132 21.0252 12.0325 21.8461 12.9245 21.8461C13.8165 21.8461 14.3274 21.0085 14.3274 19.9531C14.3274 18.9941 13.8542 18.0895 12.9245 18.0895C11.9948 18.0895 11.5048 18.9648 11.5048 20.0117L11.5132 19.9908Z" fill="#2929CC"/>
<path d="M16.0947 17.5151C16.5401 17.4382 16.9913 17.4004 17.4432 17.402C17.9509 17.3524 18.4612 17.4654 18.9006 17.7245C19.0653 17.8215 19.2011 17.9608 19.2939 18.128C19.3867 18.2951 19.4331 18.484 19.4283 18.6752C19.4222 18.9235 19.338 19.1636 19.1877 19.3614C19.0373 19.5591 18.8284 19.7044 18.5907 19.7766C18.8804 19.8355 19.1408 19.9928 19.3278 20.2218C19.5148 20.4508 19.6169 20.7373 19.6167 21.033C19.6199 21.2332 19.5774 21.4316 19.4925 21.613C19.4076 21.7944 19.2825 21.9541 19.1267 22.08C18.7666 22.3982 18.1677 22.5532 17.2422 22.5532C16.8615 22.5551 16.481 22.5327 16.1031 22.4862L16.0947 17.5151ZM17.0161 19.5211H17.4893C18.13 19.5211 18.4902 19.2196 18.4902 18.7882C18.4902 18.3569 18.13 18.093 17.5395 18.093C17.3628 18.087 17.1859 18.0996 17.0119 18.1307L17.0161 19.5211ZM17.0161 21.858C17.1788 21.8748 17.3424 21.8818 17.506 21.8789C18.1007 21.8789 18.6284 21.6528 18.6284 21.0413C18.6284 20.4299 18.1175 20.2038 17.4767 20.2038H17.0161V21.858Z" fill="#2929CC"/>
<path d="M21.4468 17.4492H22.3723V20.7535C22.3723 22.1565 21.6939 22.6255 20.6972 22.6255C20.4306 22.6233 20.1662 22.578 19.9141 22.4915L20.0271 21.746C20.213 21.8041 20.4062 21.8351 20.6009 21.8382C21.1285 21.8382 21.4384 21.5953 21.4384 20.7158L21.4468 17.4492Z" fill="#2929CC"/>
<path d="M25.0065 20.1992V20.84H23.0801V20.1992H25.0065Z" fill="#2929CC"/>
<path d="M29.5043 22.3775C29.0879 22.5435 28.6414 22.6206 28.1935 22.6037C26.5812 22.6037 25.6012 21.5944 25.6012 20.049C25.5822 19.689 25.6395 19.3289 25.7696 18.9927C25.8996 18.6564 26.0994 18.3514 26.3557 18.0978C26.612 17.8443 26.9192 17.6478 27.2568 17.5214C27.5945 17.3951 27.9551 17.3416 28.315 17.3646C28.7453 17.3467 29.1742 17.424 29.5713 17.5907L29.3661 18.3278C29.0511 18.1937 28.7117 18.1267 28.3694 18.131C27.335 18.131 26.5896 18.7801 26.5896 20.003C26.5896 21.1169 27.2471 21.8373 28.361 21.8373C28.7066 21.8423 29.0498 21.7782 29.3703 21.6488L29.5043 22.3775Z" fill="#2929CC"/>
<path d="M32.4107 15.3086V24.6812H30.1367V23.8436H31.3428V16.1462H30.1367V15.3086H32.4107Z" fill="#2929CC"/>
</svg>
