<svg width="53" height="40" viewBox="0 0 53 40" fill="none" xmlns="http://www.w3.org/2000/svg">
<path fill-rule="evenodd" clip-rule="evenodd" d="M16.1935 23.8902C15.4345 24.5966 14.5211 25.1284 13.521 25.4464C12.5389 25.7457 11.2849 25.9113 9.7656 25.9113H6.30394L5.35686 30.6667H1.3252L4.92278 12.766H12.6638C14.9943 12.766 16.6955 13.3519 17.7675 14.5344C18.8308 15.7169 19.1619 17.377 18.7256 19.5C18.5623 20.3407 18.2626 21.1511 17.8377 21.901C17.4004 22.6439 16.8448 23.3152 16.1913 23.8902H16.1935ZM8.38225 15.5853H11.1468V15.5874C12.6748 15.5874 13.692 15.8634 14.2072 16.4047C14.7071 16.9567 14.832 17.8972 14.5602 19.224C14.2861 20.606 13.749 21.6017 12.962 22.1876C12.1618 22.7842 10.9516 23.0814 9.33152 23.0814H6.87613L8.38225 15.5853Z" fill="white"/>
<path d="M27.9662 25.9113L29.5534 17.9863C29.7354 17.0883 29.6674 16.4727 29.3451 16.1372C29.0382 15.8167 28.363 15.6511 27.337 15.6511H24.1516L22.0974 25.9113H18.0898L21.6852 8H25.6818L24.7238 12.766H28.2863C30.5378 12.766 32.0768 13.1418 32.923 13.8933C33.7802 14.6576 34.0301 15.8825 33.7013 17.5766L32.0198 25.9134L27.9662 25.9113Z" fill="white"/>
<path fill-rule="evenodd" clip-rule="evenodd" d="M50.1612 19.5C50.0029 20.342 49.7029 21.1531 49.2733 21.901C48.8401 22.643 48.2889 23.3143 47.64 23.8902C46.8742 24.5932 45.9581 25.1245 44.9566 25.4464C43.9744 25.7457 42.7183 25.9113 41.2012 25.9113H37.7527L36.7946 30.6667H32.763L36.3605 12.766H44.1016C46.432 12.766 48.1333 13.3519 49.2053 14.5472C50.2686 15.719 50.5996 17.377 50.1633 19.5H50.1612ZM39.8288 15.5853H42.5823V15.5874C44.1126 15.5874 45.1408 15.8634 45.6406 16.4047C46.1558 16.9567 46.2808 17.8972 46.0089 19.224C45.7327 20.606 45.1956 21.6017 44.3976 22.1876C43.6083 22.7842 42.3982 23.0814 40.7671 23.0814H38.3227L39.8288 15.5853Z" fill="white"/>
</svg>
