<svg width="40" height="40" viewBox="0 0 40 40" fill="none" xmlns="http://www.w3.org/2000/svg">
<path d="M20.0164 4.00027C18.6796 4.00642 17.4031 4.11933 16.2798 4.31617C12.9708 4.89513 12.37 6.10693 12.37 8.3417V11.2932H20.1896V12.277H12.37H9.43542C7.16284 12.277 5.1729 13.6298 4.55048 16.2032C3.83252 19.153 3.80067 20.9937 4.55048 24.0738C5.10632 26.3664 6.43374 28 8.70632 28H11.3949V24.4619C11.3949 21.9058 13.628 19.6511 16.2798 19.6511H24.0902C26.2644 19.6511 28 17.8782 28 15.7158V8.3417C28 6.24298 26.2123 4.66644 24.0902 4.31617C22.7469 4.09472 21.3532 3.99411 20.0164 4.00027ZM15.7877 6.37406C16.5954 6.37406 17.255 7.03798 17.255 7.8543C17.255 8.66774 16.5954 9.32552 15.7877 9.32552C14.9771 9.32552 14.3204 8.66774 14.3204 7.8543C14.3204 7.03798 14.9771 6.37406 15.7877 6.37406Z" fill="white"/>
<path d="M28.5714 12V15.4127C28.5714 18.0585 26.2937 20.2854 23.6964 20.2854H15.9018C13.7668 20.2854 12 22.085 12 24.1907V31.5087C12 33.5915 13.839 34.8165 15.9018 35.414C18.372 36.1294 20.7408 36.2586 23.6964 35.414C25.661 34.8538 27.5982 33.7265 27.5982 31.5087V28.5797H19.8037V27.6034H27.5982H31.5001C33.768 27.6034 34.6131 26.0454 35.4019 23.707C36.2166 21.2997 36.1819 18.9846 35.4019 15.8964C34.8414 13.6729 33.7709 12 31.5001 12H28.5714ZM24.1875 30.5324C24.9965 30.5324 25.6519 31.1852 25.6519 31.9924C25.6519 32.8025 24.9965 33.4614 24.1875 33.4614C23.3815 33.4614 22.7232 32.8025 22.7232 31.9924C22.7232 31.1852 23.3815 30.5324 24.1875 30.5324Z" fill="white"/>
</svg>
