<svg width="40" height="40" viewBox="0 0 40 40" fill="none" xmlns="http://www.w3.org/2000/svg">
<rect x="4" y="4" width="32" height="32" rx="5.33333" fill="white"/>
<path d="M20.001 22.4058C21.3142 22.4058 22.3787 21.3289 22.3787 20.0006C22.3787 18.6722 21.3142 17.5954 20.001 17.5954C18.6878 17.5954 17.6233 18.6722 17.6233 20.0006C17.6233 21.3289 18.6878 22.4058 20.001 22.4058Z" fill="#2929CC"/>
<path d="M13.3433 24.7828L12.8171 24.6467C8.90886 23.6482 6.66699 21.9505 6.66699 19.9953C6.66699 18.0388 8.91019 16.3424 12.8171 15.3439L13.3433 15.2092L13.4912 15.736C13.8862 17.1154 14.3923 18.4597 15.0044 19.7555L15.1176 19.9953L15.0044 20.2352C14.3917 21.5327 13.8841 22.8775 13.4912 24.2573L13.3433 24.7828ZM12.5747 16.5701C9.60553 17.4163 7.78193 18.7071 7.78193 19.9953C7.78193 21.2808 9.6042 22.573 12.5747 23.4178C12.9384 22.2482 13.378 21.1043 13.8868 19.9953C13.3743 18.8845 12.9359 17.7402 12.5747 16.5701ZM26.6573 24.7828L26.5108 24.2546C26.1147 22.8749 25.6082 21.5302 24.9962 20.2338L24.883 19.9953L24.9962 19.7541C25.609 18.4592 26.1139 17.1131 26.5108 15.7333L26.6573 15.2078L27.1835 15.3426C31.0931 16.341 33.3337 18.0375 33.3337 19.9953C33.3337 21.9518 31.0918 23.6482 27.1835 24.6467L26.6573 24.7828ZM26.1112 19.9953C26.644 21.1622 27.0876 22.3102 27.4259 23.4178C30.3964 22.573 32.22 21.2808 32.22 19.9953C32.22 18.7071 30.3978 17.4176 27.4259 16.5701C27.0627 17.7398 26.6234 18.8841 26.1112 19.9953Z" fill="#2929CC"/>
<path d="M12.5667 16.5646L12.4202 16.0391C11.3199 12.1207 11.6529 9.31394 13.3353 8.33569C14.9804 7.37227 17.6272 8.51086 20.3993 11.3877L20.7776 11.7811L20.3993 12.1732C19.4147 13.209 18.5148 14.3239 17.7085 15.5068L17.558 15.7251L17.2969 15.7467C15.879 15.8593 14.4726 16.0887 13.0916 16.4325L12.5667 16.5646ZM14.6741 9.11452C14.3757 9.11452 14.1119 9.18054 13.8895 9.3099C12.7865 9.95263 12.592 12.1907 13.3513 15.2117C14.5382 14.9463 15.7357 14.7563 16.9426 14.6498C17.6413 13.6474 18.4035 12.6919 19.2244 11.7892C17.4887 10.082 15.8503 9.11452 14.6741 9.11452ZM25.3266 31.9996C23.7441 31.9996 21.7114 30.7923 19.6014 28.6013L19.2244 28.2092L19.6014 27.8185C20.5861 26.781 21.4864 25.6649 22.2935 24.4808L22.4427 24.2652L22.7011 24.2396C24.1195 24.129 25.5264 23.9005 26.9078 23.5565L27.4339 23.4217L27.5818 23.9486C28.6768 27.8643 28.3451 30.6751 26.6653 31.6533C26.2575 31.8872 25.7954 32.0067 25.3266 31.9996ZM20.7776 28.1998C22.5119 29.907 24.1517 30.8758 25.3266 30.8758C25.6263 30.8758 25.8901 30.8085 26.1112 30.6805C27.2155 30.0364 27.4113 27.7942 26.6493 24.7732C25.4638 25.04 24.2649 25.2314 23.0554 25.3378C22.3597 26.3418 21.5987 27.2979 20.7776 28.1998Z" fill="#2929CC"/>
<path d="M27.4339 16.5647L26.9078 16.4313C25.5265 16.0864 24.1195 15.857 22.7011 15.7454L22.4427 15.7225L22.2935 15.5042C21.4875 14.3206 20.5871 13.2057 19.6014 12.1707L19.2244 11.7785L19.6014 11.3878C22.3721 8.51233 25.0176 7.37373 26.6653 8.33581C28.3464 9.31541 28.6808 12.1221 27.5818 16.0392L27.4339 16.5647ZM23.0554 14.65C24.3262 14.7645 25.5304 14.9572 26.6493 15.2118C27.41 12.1909 27.2155 9.95275 26.1112 9.30867C25.0136 8.66594 22.9475 9.64957 20.7776 11.7893C21.5981 12.6921 22.3601 13.6461 23.0554 14.65ZM14.6741 31.9997C14.2053 32.0065 13.7433 31.887 13.3353 31.6534C11.6529 30.6752 11.3199 27.8658 12.4189 23.9487L12.5627 23.4219L13.0889 23.5566C14.373 23.884 15.7877 24.1145 17.2956 24.2398L17.554 24.2654L17.7045 24.481C18.5091 25.664 19.4096 26.7811 20.3953 27.8186L20.7736 28.2094L20.3953 28.6015C18.2866 30.7938 16.2539 31.9997 14.6741 31.9997ZM13.3513 24.7747C12.592 27.7957 12.7865 30.0378 13.8895 30.6819C14.9884 31.3152 17.0478 30.3383 19.2244 28.1999C18.4038 27.297 17.6416 26.3415 16.9426 25.3393C15.7345 25.2312 14.5348 25.0426 13.3513 24.7747Z" fill="#2929CC"/>
<path d="M20.001 25.4819C19.0859 25.4819 18.1468 25.4428 17.2037 25.3633L16.9426 25.3404L16.792 25.1221C16.2602 24.3486 15.7598 23.5534 15.2921 22.7385C14.8279 21.9215 14.3964 21.0858 13.9987 20.2336L13.8868 19.9953L13.9987 19.7539C14.397 18.9023 14.8272 18.0669 15.2921 17.2503C15.7544 16.4473 16.2592 15.6442 16.792 14.8654L16.9426 14.6498L17.2037 14.6255C19.0644 14.4679 20.9349 14.4679 22.7957 14.6255L23.0541 14.6511L23.2046 14.8667C24.27 16.4146 25.2057 18.0498 26.002 19.7553L26.1125 19.9964L26.002 20.2349C25.2079 21.9416 24.2721 23.577 23.2046 25.1235L23.0541 25.3418L22.7957 25.3647C21.8552 25.4415 20.9148 25.4819 20.001 25.4819ZM17.558 24.2638C19.2031 24.3891 20.7989 24.3891 22.4427 24.2638C23.3603 22.9045 24.176 21.4778 24.883 19.9953C24.1785 18.5114 23.3627 17.0842 22.4427 15.7264C20.8169 15.5997 19.1838 15.5997 17.558 15.7264C16.6372 17.0837 15.8213 18.511 15.1176 19.9953C15.8261 21.477 16.6418 22.9036 17.558 24.2638Z" fill="#2929CC"/>
</svg>
