<svg width="40" height="40" viewBox="0 0 40 40" fill="none" xmlns="http://www.w3.org/2000/svg">
<path d="M35.9993 12.8641C35.9993 12.542 35.9936 12.2212 35.985 11.8984C35.9764 11.1943 35.9148 10.4919 35.8007 9.79701C35.6816 9.10139 35.4596 8.42736 35.1421 7.79706C34.4974 6.5312 33.4681 5.5022 32.202 4.85784C31.5718 4.53991 30.8977 4.31794 30.2019 4.19928C29.5068 4.08455 28.8041 4.02271 28.0996 4.01429C27.7775 4.00571 27.4568 4.00214 27.1339 4H12.8654C12.5432 4 12.2225 4.00571 11.8996 4.01429C11.7246 4.01929 11.5489 4.025 11.3732 4.03357C10.8449 4.05478 10.3185 4.11014 9.7974 4.19928C9.27824 4.28987 8.7703 4.43594 8.28233 4.63499C8.11756 4.70403 7.95541 4.77832 7.79588 4.85784C7.3251 5.09879 6.88421 5.39413 6.48225 5.73782C6.34796 5.85282 6.21867 5.9721 6.09438 6.09495C5.59407 6.59394 5.17579 7.16888 4.85504 7.79849C4.53736 8.42872 4.31539 9.10278 4.19644 9.79844C4.08335 10.4929 4.0227 11.1949 4.015 11.8984C4.00571 12.2205 4.00214 12.5412 4 12.8641V27.1373C4 27.4595 4.00571 27.7802 4.015 28.1023C4.02352 28.8064 4.08512 29.5089 4.19929 30.2037C4.31809 30.8994 4.54007 31.5735 4.8579 32.2037C5.50297 33.4685 6.53125 34.4972 7.79588 35.1429C8.42621 35.4603 9.1003 35.682 9.79597 35.8007C10.491 35.9154 11.1938 35.9773 11.8982 35.9857C12.2197 35.9943 12.5411 35.9979 12.864 36H27.1353C27.4575 36 27.7782 35.9943 28.1011 35.9857C28.8057 35.9769 29.5087 35.9151 30.204 35.8007C30.8997 35.6819 31.5737 35.4602 32.2041 35.1429C33.4691 34.4974 34.4975 33.4683 35.1421 32.2029C35.4599 31.5728 35.6819 30.8987 35.8007 30.203C35.9155 29.5082 35.9773 28.8057 35.9857 28.1016C35.9943 27.7802 35.9979 27.4588 36 27.1366V14.0105C35.9993 13.6284 35.9993 13.2462 35.9993 12.8641ZM31.0076 30.078C29.579 27.2973 26.9196 27.9873 25.5567 28.6873C25.4338 28.7587 25.3081 28.8302 25.1817 28.9016L25.1517 28.9194C22.3301 30.4194 18.5421 30.5294 14.7333 28.8923C11.6329 27.548 9.01121 25.298 7.21229 22.4374C8.0875 23.0849 9.02474 23.6441 10.0103 24.1067C14.0362 25.9924 18.0821 25.8559 20.9393 24.1067C16.8677 20.9746 13.4676 16.8926 10.861 13.5912C10.3645 13.0119 9.91582 12.3932 9.51953 11.7413C12.6411 14.5983 17.5699 18.1854 19.34 19.1782C15.5848 15.2147 12.2761 10.3256 12.4311 10.4827C18.3449 16.4412 23.8016 19.8104 23.8016 19.8104C24.0073 19.9232 24.1588 20.0139 24.2823 20.0961C24.3966 19.8045 24.4958 19.5072 24.5795 19.2054C25.5238 15.7533 24.4609 11.807 22.0572 8.54847C27.5425 11.8398 30.7848 18.0961 29.4561 23.3874C29.4247 23.511 29.3883 23.6303 29.3533 23.751C32.1048 27.1366 31.3584 30.7623 31.0076 30.078Z" fill="white"/>
</svg>
