<svg width="40" height="40" viewBox="0 0 40 40" fill="none" xmlns="http://www.w3.org/2000/svg">
<path d="M12.1052 4C11.0969 4.00211 10.1099 4.55352 9.60237 5.39461L1.70784 18.6054C1.20807 19.4487 1.20807 20.5511 1.70784 21.3945L9.60237 34.6054C10.1099 35.4465 11.0969 35.998 12.1052 36H27.8942C28.9025 35.9979 29.8895 35.4465 30.397 34.6054L38.2916 21.3945C38.7913 20.5511 38.7912 19.4487 38.2916 18.6054L30.397 5.39461C29.8895 4.55338 28.9025 4.00197 27.8942 4H12.1052ZM12.2485 11.7286C12.2702 11.7265 12.293 11.7265 12.3147 11.7286H15.038C15.0985 11.7305 15.1576 11.7471 15.2096 11.7768C15.2617 11.8066 15.3051 11.8486 15.3358 11.8988L19.9557 19.8296C19.979 19.8689 19.9939 19.9125 19.9994 19.9574C20.0052 19.9125 20.0201 19.8689 20.0435 19.8296L24.6522 11.8988C24.684 11.8472 24.7291 11.8043 24.7832 11.7744C24.8374 11.7446 24.8986 11.7288 24.9609 11.7286H27.6844C27.9254 11.7305 28.1061 12.0232 27.9931 12.2289L23.4835 20L27.9931 27.7605C28.1168 27.9673 27.9319 28.2734 27.6844 28.2714H24.9609C24.8975 28.2701 24.8355 28.2527 24.7813 28.2209C24.7271 28.1892 24.6826 28.1442 24.6522 28.0905L20.0435 20.1596C20.0201 20.1204 20.0052 20.0767 19.9996 20.0319C19.9939 20.0769 19.979 20.1203 19.9557 20.1597L15.3357 28.0905C15.3063 28.1426 15.2635 28.1867 15.2114 28.2184C15.1593 28.25 15.0997 28.2683 15.0382 28.2714H12.3146C12.0671 28.2735 11.8822 27.9673 12.0059 27.7605L16.5155 20L12.0059 12.2289C11.8978 12.0412 12.0296 11.7686 12.2484 11.7286H12.2485Z" fill="white"/>
</svg>
